<svg width="100" height="100" viewBox="0 0 100 100" fill="none" xmlns="http://www.w3.org/2000/svg">
<rect width="100" height="100" fill="#0C2A48"/>
<path d="M4.9971 25.4104C4.46424 25.5 4.0578 25.9369 4.00553 26.4746C3.95379 27.0128 4.26956 27.519 4.77574 27.7089C10.1886 29.7397 19.3805 33.1878 22.9996 34.546C23.988 34.9167 25.075 34.9322 26.0736 34.5902C33.549 32.0276 66.3761 20.7738 85.2891 14.2899C85.8684 14.0914 86.1986 13.4812 86.0481 12.8875C85.8977 12.2938 85.3163 11.915 84.7125 12.0164C62.0791 15.8198 18.8466 23.0835 4.9971 25.4104Z" fill="url(#paint0_linear_573_2)"/>
<path d="M59.9076 33.9573C60.2575 33.7487 60.7087 33.8543 60.9296 34.1962C61.1504 34.5376 61.0608 34.9932 60.7269 35.2252C52.382 41.037 43.6189 47.1395 40.7065 49.1676C40.4436 49.3506 40.2665 49.6333 40.2169 49.9496C40.1668 50.2665 40.2484 50.5892 40.442 50.8447C41.8091 52.6461 44.7422 56.5098 46.4272 58.7289C46.7467 59.1503 47.231 59.4143 47.758 59.4543C48.285 59.4949 48.804 59.3076 49.1843 58.9406C56.0282 52.3245 84.4538 24.8473 95.1605 14.4976C95.5616 14.1103 95.6353 13.4937 95.3366 13.0221C95.0373 12.5505 94.4485 12.3537 93.9263 12.5516C77.9202 18.6098 30.4259 36.5855 14.0812 42.7717C13.502 42.991 13.1537 43.5831 13.2433 44.1955C13.3329 44.8078 13.8359 45.2757 14.4535 45.3199C21.2916 45.8096 32.0885 46.5842 36.2895 46.885C37.431 46.9672 38.5703 46.6962 39.5528 46.1094C42.9671 44.0717 51.6277 38.9011 59.9076 33.9573Z" fill="white"/>
<path d="M39.1132 66C40.7742 66 42.1754 66.5642 43.3173 67.6924L41.951 69.5195C41.6051 69.1589 41.1754 68.8734 40.662 68.665C40.1489 68.4564 39.6444 68.3526 39.1483 68.3525C38.641 68.3525 38.2395 68.4626 37.9452 68.6826C37.6513 68.9024 37.5048 69.1929 37.5048 69.5537C37.5048 70.039 37.8501 70.4507 38.5419 70.7891L39.8055 71.3311C40.5203 71.6241 41.039 71.8443 41.3622 71.9912C42.8154 72.6797 43.5428 73.717 43.5428 75.1045C43.5428 76.2213 43.1101 77.135 42.245 77.8457C41.38 78.5567 40.2492 78.9121 38.8534 78.9121C37.85 78.9121 36.9214 78.7089 36.0682 78.3027C35.2151 77.8966 34.5286 77.3216 34.0096 76.5771L35.4794 74.834C36.3327 75.9961 37.4638 76.5771 38.871 76.5771C39.4016 76.5771 39.8404 76.4525 40.1864 76.2041C40.532 75.9559 40.7048 75.6347 40.705 75.2402C40.705 74.7212 40.3189 74.2866 39.5458 73.9365C39.4535 73.8912 39.032 73.7284 38.2831 73.4463C37.6948 73.2209 37.1923 72.9949 36.7772 72.7695C35.4276 72.0133 34.7528 70.9752 34.7528 69.6553C34.7528 68.6061 35.1569 67.7373 35.9647 67.0488C36.7834 66.3499 37.8331 66 39.1132 66ZM15.9374 68.623H12.287V78.709H9.69128V68.623H6.04089V66.2031H15.9374V68.623ZM19.912 71.1953H25.2762V66.2031H27.8368V78.709H25.2762V73.6152H19.912V78.709H17.3514V66.2031H19.912V71.1953ZM32.5087 78.709H29.9315V66.2031H32.5087V78.709ZM52.0428 74.6133L54.9491 66.2031H56.576L59.5341 74.6133L62.078 66.2031H64.8807L60.6591 78.709H58.496L55.7802 70.5186L53.0634 78.709H50.9003L46.662 66.2031H49.4647L52.0428 74.6133ZM74.5634 75.2158L78.5028 66.2031H80.8485L86.2362 78.709H83.2128L79.6659 69.6045L77.9598 73.7676H80.2743L81.1444 76.001H77.1464L76.0536 78.6758L76.0682 78.709H73.037L73.0399 78.7002L69.4969 69.6045L67.7919 73.7676H70.1063L70.9764 76.001H66.9774L65.8729 78.709H62.869L68.3348 66.2031H70.6796L74.5634 75.2158ZM89.2899 71.6865L92.0409 66.2031H94.9999L90.5702 74.377V78.709H88.0096V74.377L83.6327 66.2031H86.5907L89.2899 71.6865Z" fill="white"/>
<path fill-rule="evenodd" clip-rule="evenodd" d="M7.7061 82.9937C8.24797 82.9937 8.65415 83.1417 8.92487 83.4375C9.19983 83.729 9.33742 84.0894 9.33742 84.5187C9.33742 84.9436 9.19559 85.3019 8.91234 85.5936C8.62909 85.8769 8.20423 86.0187 7.63752 86.0187H6.92495V87.6124H6.00005V82.9937H7.7061ZM7.66873 85.1813C7.89783 85.1813 8.07598 85.1176 8.20316 84.9906C8.33014 84.8636 8.39362 84.702 8.39362 84.5062C8.39362 84.3187 8.33226 84.1624 8.20932 84.0374C8.08638 83.9125 7.92289 83.8499 7.71863 83.8499H6.92495V85.1813H7.66873Z" fill="white"/>
<path fill-rule="evenodd" clip-rule="evenodd" d="M13.8954 87.6124H12.8142L11.8392 85.9313H11.2893V87.6124H10.3642V82.9937H12.1329C12.6454 82.9937 13.0372 83.1353 13.3079 83.4186C13.5786 83.7019 13.7141 84.048 13.7141 84.4561C13.7141 84.7644 13.634 85.0405 13.4735 85.2842C13.313 85.528 13.0809 85.7043 12.7766 85.8124L13.8954 87.6124ZM12.1267 83.8499H11.2893V85.0999H12.0454C12.2787 85.0999 12.4569 85.0418 12.5798 84.925C12.7027 84.8082 12.7641 84.6561 12.7641 84.4686C12.7641 84.2894 12.7068 84.1416 12.5923 84.0248C12.4777 83.9083 12.3225 83.8499 12.1267 83.8499Z" fill="white"/>
<path fill-rule="evenodd" clip-rule="evenodd" d="M15.3284 87.006C14.8702 86.5478 14.6408 85.9853 14.6408 85.3185C14.6408 84.6477 14.8721 84.079 15.3345 83.6123C15.8014 83.1456 16.3722 82.9122 17.0469 82.9122C17.7219 82.9122 18.2908 83.1456 18.7532 83.6123C19.2199 84.079 19.4533 84.6434 19.4533 85.306C19.4533 85.9685 19.2199 86.531 18.7532 86.9935C18.2908 87.456 17.72 87.6872 17.0408 87.6872C16.3533 87.6872 15.7825 87.4602 15.3284 87.006ZM18.0721 84.2498C17.7888 83.9665 17.447 83.8246 17.0469 83.8246C16.6471 83.8246 16.3053 83.9665 16.022 84.2498C15.7428 84.529 15.6033 84.8811 15.6033 85.306C15.6033 85.7268 15.7409 86.0768 16.0159 86.356C16.2951 86.6352 16.6388 86.7748 17.0469 86.7748C17.4552 86.7748 17.799 86.6352 18.0782 86.356C18.3574 86.0768 18.495 85.7268 18.4908 85.306C18.4908 84.8811 18.3513 84.529 18.0721 84.2498Z" fill="white"/>
<path fill-rule="evenodd" clip-rule="evenodd" d="M22.3494 87.6124H20.5807V82.9937H22.387C23.0826 82.9937 23.6264 83.202 24.0181 83.6186C24.4139 84.0354 24.6118 84.5999 24.6118 85.3125C24.6118 86.0249 24.4098 86.5855 24.0056 86.9936C23.6055 87.4062 23.0537 87.6124 22.3494 87.6124ZM21.5056 83.8811V86.725H22.3932C22.7889 86.725 23.0974 86.5895 23.3181 86.3188C23.5389 86.0478 23.6493 85.7062 23.6493 85.2936C23.6493 84.8937 23.5389 84.5582 23.3181 84.2875C23.0974 84.0168 22.7889 83.8811 22.3932 83.8811H21.5056Z" fill="white"/>
<path fill-rule="evenodd" clip-rule="evenodd" d="M25.7136 82.9937V85.9249C25.7136 86.5042 25.8843 86.9437 26.2261 87.2438C26.5678 87.5438 26.999 87.6937 27.5198 87.6937C28.0405 87.6937 28.4698 87.5438 28.8072 87.2438C29.1488 86.9437 29.3197 86.5042 29.3197 85.9249V82.9937H28.3821V85.8625C28.3821 86.1583 28.3052 86.3874 28.1509 86.55C27.9967 86.7125 27.7865 86.7936 27.5198 86.7936C27.2447 86.7936 27.0302 86.7144 26.8761 86.5562C26.7217 86.398 26.6448 86.1668 26.6448 85.8625V82.9937H25.7136Z" fill="white"/>
<path fill-rule="evenodd" clip-rule="evenodd" d="M32.7776 87.681C32.1026 87.681 31.5382 87.4623 31.084 87.0247C30.6297 86.583 30.4027 86.0143 30.4027 85.3185C30.4027 84.6184 30.6339 84.0436 31.0966 83.5934C31.5633 83.1392 32.1276 82.9122 32.7901 82.9122C33.2027 82.9122 33.5859 82.9986 33.9401 83.1717C34.2942 83.3445 34.5732 83.5766 34.7775 83.8684L34.1588 84.4748C33.7963 84.0289 33.3568 83.806 32.8402 83.806C32.4234 83.806 32.0735 83.9497 31.7902 84.2372C31.507 84.5205 31.3652 84.8811 31.3652 85.3185C31.3652 85.7434 31.5047 86.0955 31.7839 86.3747C32.0631 86.6539 32.4132 86.7934 32.8338 86.7934C33.3715 86.7934 33.8193 86.5686 34.1777 86.1186L34.8151 86.6998C34.5983 86.9956 34.3099 87.233 33.9494 87.4122C33.5889 87.5914 33.1984 87.681 32.7776 87.681Z" fill="white"/>
<path fill-rule="evenodd" clip-rule="evenodd" d="M36.711 83.8874V87.6124H37.6484V83.8874H38.967V82.9937H35.3922V83.8874H36.711Z" fill="white"/>
<path fill-rule="evenodd" clip-rule="evenodd" d="M43.2728 87.6124H41.5041V82.9937H43.3104C44.0062 82.9937 44.5497 83.202 44.9415 83.6186C45.3373 84.0354 45.5352 84.5999 45.5352 85.3125C45.5352 86.0249 45.3332 86.5855 44.929 86.9936C44.5291 87.4062 43.9771 87.6124 43.2728 87.6124ZM42.4292 83.8811V86.725H43.3165C43.7123 86.725 44.0208 86.5895 44.2417 86.3188C44.4623 86.0478 44.5729 85.7062 44.5729 85.2936C44.5729 84.8937 44.4623 84.5582 44.2417 84.2875C44.0208 84.0168 43.7123 83.8811 43.3165 83.8811H42.4292Z" fill="white"/>
<path fill-rule="evenodd" clip-rule="evenodd" d="M46.6874 87.6124H49.8184V86.7499H47.6187V85.7125H49.656V84.85H47.6187V83.8562H49.8184V82.9937H46.6874V87.6124Z" fill="white"/>
<path fill-rule="evenodd" clip-rule="evenodd" d="M52.3959 87.6872C52.0333 87.6872 51.6978 87.6122 51.3897 87.4623C51.0814 87.3122 50.8334 87.0998 50.6459 86.8248L51.1772 86.181C51.4855 86.6102 51.8938 86.8248 52.4021 86.8248C52.5938 86.8248 52.752 86.779 52.8771 86.6872C53.0021 86.5955 53.0646 86.4768 53.0646 86.3309C53.0646 86.1392 52.9251 85.9789 52.6459 85.8498C52.6125 85.833 52.4603 85.7727 52.1896 85.6684C51.9772 85.5852 51.7959 85.5017 51.646 85.4185C51.1585 85.1393 50.9147 84.756 50.9147 84.2684C50.9147 83.8809 51.0604 83.5603 51.3521 83.3059C51.6479 83.0477 52.0271 82.9185 52.4896 82.9185C53.0896 82.9185 53.5958 83.1266 54.0084 83.5435L53.5145 84.2185C53.3896 84.0852 53.2344 83.9798 53.0489 83.9028C52.8635 83.8259 52.6813 83.7873 52.5021 83.7873C52.3189 83.7873 52.1741 83.8278 52.0677 83.9091C51.9615 83.9903 51.9084 84.0977 51.9084 84.2311C51.9084 84.4103 52.0333 84.5623 52.2834 84.6872L52.7397 84.8872C52.9979 84.9955 53.1854 85.0768 53.3022 85.131C53.827 85.3851 54.0895 85.7684 54.0895 86.281C54.0895 86.6934 53.9332 87.031 53.6209 87.2935C53.3083 87.556 52.9 87.6872 52.3959 87.6872Z" fill="white"/>
<path d="M56.1287 82.9937H55.1974V87.6124H56.1287V82.9937Z" fill="white"/>
<path fill-rule="evenodd" clip-rule="evenodd" d="M59.6678 87.681C58.972 87.681 58.3949 87.4581 57.9367 87.0124C57.4868 86.5622 57.2617 85.9935 57.2617 85.306C57.2617 84.6103 57.4949 84.0372 57.9618 83.5872C58.4285 83.1373 59.0096 82.9122 59.7054 82.9122C60.0721 82.9122 60.4209 82.9799 60.7522 83.1154C61.0834 83.2509 61.3552 83.4331 61.5677 83.6622L60.9615 84.3247C60.6159 83.979 60.1972 83.806 59.7054 83.806C59.2761 83.806 58.9198 83.9478 58.6365 84.2311C58.3533 84.5143 58.2117 84.8704 58.2117 85.2998C58.2117 85.7205 58.349 86.0747 58.6242 86.3622C58.9075 86.6497 59.2636 86.7934 59.6929 86.7934C59.926 86.7934 60.1532 86.7486 60.374 86.6592C60.5948 86.5696 60.7802 86.4499 60.9303 86.2997V85.6684H59.6553V84.8622H61.7739V86.7622C61.1866 87.3748 60.4844 87.681 59.6678 87.681Z" fill="white"/>
<path fill-rule="evenodd" clip-rule="evenodd" d="M65.9824 82.9937V85.8499L63.545 82.9937H62.9575V87.6124H63.8699V84.7812L66.2637 87.6124H66.8947V82.9937H65.9824Z" fill="white"/>
<path fill-rule="evenodd" clip-rule="evenodd" d="M71.1903 87.6872C70.8279 87.6872 70.4924 87.6122 70.1841 87.4623C69.8758 87.3122 69.6278 87.0998 69.4403 86.8248L69.9716 86.181C70.2799 86.6102 70.6884 86.8248 71.1965 86.8248C71.3882 86.8248 71.5464 86.779 71.6715 86.6872C71.7965 86.5955 71.859 86.4768 71.859 86.3309C71.859 86.1392 71.7195 85.9789 71.4403 85.8498C71.4071 85.833 71.2549 85.7727 70.984 85.6684C70.7716 85.5852 70.5903 85.5017 70.4404 85.4185C69.9529 85.1393 69.7092 84.756 69.7092 84.2684C69.7092 83.8809 69.8548 83.5603 70.1465 83.3059C70.4423 83.0477 70.8215 82.9185 71.284 82.9185C71.884 82.9185 72.3902 83.1266 72.8028 83.5435L72.3089 84.2185C72.184 84.0852 72.0288 83.9798 71.8435 83.9028C71.6579 83.8259 71.4757 83.7873 71.2965 83.7873C71.1133 83.7873 70.9685 83.8278 70.8621 83.9091C70.7559 83.9903 70.7028 84.0977 70.7028 84.2311C70.7028 84.4103 70.8279 84.5623 71.0778 84.6872L71.5341 84.8872C71.7923 84.9955 71.9798 85.0768 72.0966 85.131C72.6214 85.3851 72.8839 85.7684 72.8839 86.281C72.8839 86.6934 72.7278 87.031 72.4153 87.2935C72.1027 87.556 71.6944 87.6872 71.1903 87.6872Z" fill="white"/>
<path fill-rule="evenodd" clip-rule="evenodd" d="M74.8171 83.8874V87.6124H75.7545V83.8874H77.0733V82.9937H73.4983V83.8874H74.8171Z" fill="white"/>
<path fill-rule="evenodd" clip-rule="evenodd" d="M77.994 85.9249V82.9937H78.9253V85.8625C78.9253 86.1668 79.0021 86.398 79.1565 86.5562C79.3106 86.7144 79.5251 86.7936 79.8 86.7936C80.0669 86.7936 80.2771 86.7125 80.4313 86.55C80.5857 86.3874 80.6625 86.1583 80.6625 85.8625V82.9937H81.6V85.9249C81.6 86.5042 81.4292 86.9437 81.0876 87.2438C80.75 87.5438 80.3209 87.6937 79.8 87.6937C79.2794 87.6937 78.8482 87.5438 78.5063 87.2438C78.1647 86.9437 77.994 86.5042 77.994 85.9249Z" fill="white"/>
<path fill-rule="evenodd" clip-rule="evenodd" d="M82.9457 87.6124V82.9937H84.7518C85.4476 82.9937 85.9914 83.202 86.3831 83.6186C86.7787 84.0354 86.9768 84.5999 86.9768 85.3125C86.9768 86.0249 86.7746 86.5855 86.3706 86.9936C85.9705 87.4062 85.4185 87.6124 84.7144 87.6124H82.9457ZM83.8706 86.725H84.7582C85.1539 86.725 85.4622 86.5895 85.6831 86.3188C85.9039 86.0478 86.0143 85.7062 86.0143 85.2936C86.0143 84.8937 85.9039 84.5582 85.6831 84.2875C85.4622 84.0168 85.1539 83.8811 84.7582 83.8811H83.8706V86.725Z" fill="white"/>
<path d="M89.0604 82.9937H88.1292V87.6124H89.0604V82.9937Z" fill="white"/>
<path fill-rule="evenodd" clip-rule="evenodd" d="M90.8749 87.006C90.4167 86.5478 90.1874 85.9853 90.1874 85.3185C90.1874 84.6477 90.4186 84.079 90.8813 83.6123C91.348 83.1456 91.9187 82.9122 92.5935 82.9122C93.2685 82.9122 93.8373 83.1456 94.2998 83.6123C94.7665 84.079 94.9998 84.6434 94.9998 85.306C94.9998 85.9685 94.7665 86.531 94.2998 86.9935C93.8373 87.456 93.2666 87.6872 92.5873 87.6872C91.8998 87.6872 91.3291 87.4602 90.8749 87.006ZM93.6186 84.2498C93.3354 83.9665 92.9935 83.8246 92.5935 83.8246C92.1937 83.8246 91.8518 83.9665 91.5686 84.2498C91.2894 84.529 91.1499 84.8811 91.1499 85.306C91.1499 85.7268 91.2875 86.0768 91.5624 86.356C91.8416 86.6352 92.1854 86.7748 92.5935 86.7748C93.0018 86.7748 93.3456 86.6352 93.6248 86.356C93.904 86.0768 94.0416 85.7268 94.0373 85.306C94.0373 84.8811 93.8978 84.529 93.6186 84.2498Z" fill="white"/>
<defs>
<linearGradient id="paint0_linear_573_2" x1="59.1564" y1="3.80891" x2="18.8035" y2="45.61" gradientUnits="userSpaceOnUse">
<stop stop-color="#62D38C"/>
<stop offset="1" stop-color="#30737B"/>
</linearGradient>
</defs>
</svg>
