<svg xmlns="http://www.w3.org/2000/svg" viewBox="0 0 360 366" role="img" aria-label="Gridmark Partners">
<!-- GRIDMARK STACKED LOCKUP v1.0 · master
     Wordmark: Axiforma (Poppins fallback shown). Outline type before final export.
     PARTNERS is width-justified to GRIDMARK via textLength.
     Clear space: one marked cell on all sides. -->
<defs><style>
  .gm{font-family:'Axiforma','Poppins','Segoe UI',sans-serif;font-weight:600;font-size:46px;fill:#0C2A48}
  .pt{font-family:'Axiforma','Poppins','Segoe UI',sans-serif;font-weight:400;font-size:18.4px;fill:#0C2A48}
</style></defs>
<g transform="translate(76,10) scale(0.8)">
  <g stroke="#0C2A48" fill="none">
    <line x1="78" y1="34" x2="78" y2="172" stroke-width="6" stroke-linecap="square"/>
    <line x1="104" y1="34" x2="104" y2="172" stroke-width="6" stroke-linecap="square"/>
    <line x1="78" y1="48" x2="104" y2="48" stroke-width="4.6" stroke-linecap="square"/>
    <g stroke-width="1.3"><line x1="86" y1="55" x2="86" y2="64"/><line x1="91" y1="55" x2="91" y2="64"/><line x1="96" y1="55" x2="96" y2="64"/></g>
    <line x1="78" y1="74" x2="104" y2="74" stroke-width="2"/>
    <line x1="78" y1="128" x2="104" y2="128" stroke-width="2"/>
    <g stroke-width="2.4"><line x1="78" y1="74" x2="104" y2="128"/><line x1="104" y1="74" x2="78" y2="128"/></g>
    <line x1="156" y1="34" x2="156" y2="172" stroke-width="6" stroke-linecap="square"/>
    <line x1="182" y1="34" x2="182" y2="172" stroke-width="6" stroke-linecap="square"/>
    <line x1="156" y1="48" x2="182" y2="48" stroke-width="4.6" stroke-linecap="square"/>
    <g stroke-width="1.3"><line x1="164" y1="55" x2="164" y2="64"/><line x1="169" y1="55" x2="169" y2="64"/><line x1="174" y1="55" x2="174" y2="64"/></g>
    <line x1="156" y1="74" x2="182" y2="74" stroke-width="2"/>
    <line x1="156" y1="128" x2="182" y2="128" stroke-width="2"/>
    <g stroke-width="2.4"><line x1="156" y1="74" x2="182" y2="128"/><line x1="182" y1="74" x2="156" y2="128"/></g>
    <line x1="24" y1="152" x2="236" y2="152" stroke-width="5" stroke-linecap="square"/>
    <line x1="24" y1="139" x2="236" y2="139" stroke-width="1.6"/>
    <g stroke-width="1.3">
      <line x1="37" y1="139" x2="37" y2="152"/><line x1="50" y1="139" x2="50" y2="152"/><line x1="63" y1="139" x2="63" y2="152"/>
      <line x1="117" y1="139" x2="117" y2="152"/><line x1="143" y1="139" x2="143" y2="152"/>
      <line x1="197" y1="139" x2="197" y2="152"/><line x1="210" y1="139" x2="210" y2="152"/><line x1="223" y1="139" x2="223" y2="152"/>
    </g>
  </g>
  <rect x="117" y="139" width="26" height="13" fill="#C8A46B"/>
</g>
<text class="gm" x="40" y="243" textLength="280" lengthAdjust="spacing">GRIDMARK</text>
<line x1="40" y1="259" x2="306" y2="259" stroke="#0C2A48" stroke-width="1" opacity="0.55"/>
<rect x="309" y="255.7" width="11" height="6.6" fill="#C8A46B"/>
<text class="pt" x="40" y="292" textLength="280" lengthAdjust="spacing">PARTNERS</text>
<text x="180" y="330" text-anchor="middle" font-family="Axiforma,Poppins,sans-serif" font-weight="400" font-size="15" fill="#0D698A">Find the signal. Build the system.</text>
</svg>
