<svg xmlns="http://www.w3.org/2000/svg" viewBox="0 0 260 220" role="img" aria-label="Gridmark Partners mark">
<!-- GRIDMARK MARK v1.0 · primary · navy #0C2A48 + brass cell #C8A46B · clear space: 1 cell (26x13 units) all sides · min size 40px wide, below use favicon cut -->
  <g stroke="#0C2A48" fill="none">
    <line x1="78" y1="34" x2="78" y2="172" stroke-width="6" stroke-linecap="square"/>
    <line x1="104" y1="34" x2="104" y2="172" stroke-width="6" stroke-linecap="square"/>
    <line x1="78" y1="48" x2="104" y2="48" stroke-width="4.6" stroke-linecap="square"/>
    <g stroke-width="1.3"><line x1="86" y1="55" x2="86" y2="64"/><line x1="91" y1="55" x2="91" y2="64"/><line x1="96" y1="55" x2="96" y2="64"/></g>
    <line x1="78" y1="74" x2="104" y2="74" stroke-width="2"/>
    <line x1="78" y1="128" x2="104" y2="128" stroke-width="2"/>
    <g stroke-width="2.4"><line x1="78" y1="74" x2="104" y2="128"/><line x1="104" y1="74" x2="78" y2="128"/></g>
    <line x1="156" y1="34" x2="156" y2="172" stroke-width="6" stroke-linecap="square"/>
    <line x1="182" y1="34" x2="182" y2="172" stroke-width="6" stroke-linecap="square"/>
    <line x1="156" y1="48" x2="182" y2="48" stroke-width="4.6" stroke-linecap="square"/>
    <g stroke-width="1.3"><line x1="164" y1="55" x2="164" y2="64"/><line x1="169" y1="55" x2="169" y2="64"/><line x1="174" y1="55" x2="174" y2="64"/></g>
    <line x1="156" y1="74" x2="182" y2="74" stroke-width="2"/>
    <line x1="156" y1="128" x2="182" y2="128" stroke-width="2"/>
    <g stroke-width="2.4"><line x1="156" y1="74" x2="182" y2="128"/><line x1="182" y1="74" x2="156" y2="128"/></g>
    <line x1="24" y1="152" x2="236" y2="152" stroke-width="5" stroke-linecap="square"/>
    <line x1="24" y1="139" x2="236" y2="139" stroke-width="1.6"/>
    <g stroke-width="1.3">
      <line x1="37" y1="139" x2="37" y2="152"/><line x1="50" y1="139" x2="50" y2="152"/><line x1="63" y1="139" x2="63" y2="152"/>
      <line x1="117" y1="139" x2="117" y2="152"/><line x1="143" y1="139" x2="143" y2="152"/>
      <line x1="197" y1="139" x2="197" y2="152"/><line x1="210" y1="139" x2="210" y2="152"/><line x1="223" y1="139" x2="223" y2="152"/>
    </g>
  </g>
  <rect x="117" y="139" width="26" height="13" fill="#C8A46B"/>
</svg>
